HIERARCHY
ROOT mixamorig:Hips
{
	OFFSET -0.000008 104.274872 1.554316
	CHANNELS 6 Xposition Yposition Zposition Xrotation Yrotation Zrotation
	JOINT mixamorig:Spine
	{
		OFFSET -0.000005 10.181595 0.131519
		CHANNELS 6 Xposition Yposition Zposition Xrotation Yrotation Zrotation
		JOINT mixamorig:Spine1
		{
			OFFSET -0.000000 9.893959 -1.470707
			CHANNELS 6 Xposition Yposition Zposition Xrotation Yrotation Zrotation
			JOINT mixamorig:Spine2
			{
				OFFSET -0.000000 9.220757 -1.370641
				CHANNELS 6 Xposition Yposition Zposition Xrotation Yrotation Zrotation
				JOINT mixamorig:Neck
				{
					OFFSET 0.000001 16.740417 -2.049036
					CHANNELS 6 Xposition Yposition Zposition Xrotation Yrotation Zrotation
					JOINT mixamorig:Head
					{
						OFFSET 0.000000 9.617874 1.685006
						CHANNELS 6 Xposition Yposition Zposition Xrotation Yrotation Zrotation
						JOINT mixamorig:HeadTop_End
						{
							OFFSET 0.000002 22.037354 7.501101
							CHANNELS 6 Xposition Yposition Zposition Xrotation Yrotation Zrotation
							End Site
							{
								OFFSET 0.000168 2310.654297 -282.823242
							}
						}
					}
				}
				JOINT mixamorig:RightShoulder
				{
					OFFSET -4.569970 11.014908 -2.160885
					CHANNELS 6 Xposition Yposition Zposition Xrotation Yrotation Zrotation
					JOINT mixamorig:RightArm
					{
						OFFSET -10.592851 -0.524811 -2.232101
						CHANNELS 6 Xposition Yposition Zposition Xrotation Yrotation Zrotation
						JOINT mixamorig:RightForeArm
						{
							OFFSET -27.841511 0.000031 -0.000004
							CHANNELS 6 Xposition Yposition Zposition Xrotation Yrotation Zrotation
							JOINT mixamorig:RightHand
							{
								OFFSET -28.328831 -0.000015 0.000015
								CHANNELS 6 Xposition Yposition Zposition Xrotation Yrotation Zrotation
								JOINT mixamorig:RightHandThumb1
								{
									OFFSET -2.464806 -1.573990 2.681852
									CHANNELS 6 Xposition Yposition Zposition Xrotation Yrotation Zrotation
									JOINT mixamorig:RightHandThumb2
									{
										OFFSET -3.215179 -1.872803 1.924282
										CHANNELS 6 Xposition Yposition Zposition Xrotation Yrotation Zrotation
										JOINT mixamorig:RightHandThumb3
										{
											OFFSET -2.654831 -1.527969 1.512609
											CHANNELS 6 Xposition Yposition Zposition Xrotation Yrotation Zrotation
											JOINT mixamorig:RightHandThumb4
											{
												OFFSET -2.018814 -1.152008 1.108052
												CHANNELS 6 Xposition Yposition Zposition Xrotation Yrotation Zrotation
												End Site
												{
													OFFSET -188.809540 -114.533607 132.431396
												}
											}
										}
									}
								}
								JOINT mixamorig:RightHandIndex1
								{
									OFFSET -9.108284 -0.517868 2.259835
									CHANNELS 6 Xposition Yposition Zposition Xrotation Yrotation Zrotation
									JOINT mixamorig:RightHandIndex2
									{
										OFFSET -3.699989 0.000000 0.001215
										CHANNELS 6 Xposition Yposition Zposition Xrotation Yrotation Zrotation
										JOINT mixamorig:RightHandIndex3
										{
											OFFSET -2.850006 0.000031 -0.000522
											CHANNELS 6 Xposition Yposition Zposition Xrotation Yrotation Zrotation
											JOINT mixamorig:RightHandIndex4
											{
												OFFSET -2.772186 -0.000015 -0.000020
												CHANNELS 6 Xposition Yposition Zposition Xrotation Yrotation Zrotation
												End Site
												{
													OFFSET -277.218445 0.000000 -0.050231
												}
											}
										}
									}
								}
								JOINT mixamorig:RightHandMiddle1
								{
									OFFSET -9.532516 -0.000031 -0.000023
									CHANNELS 6 Xposition Yposition Zposition Xrotation Yrotation Zrotation
									JOINT mixamorig:RightHandMiddle2
									{
										OFFSET -3.700005 -0.000015 0.003713
										CHANNELS 6 Xposition Yposition Zposition Xrotation Yrotation Zrotation
										JOINT mixamorig:RightHandMiddle3
										{
											OFFSET -2.949974 0.000015 -0.002054
											CHANNELS 6 Xposition Yposition Zposition Xrotation Yrotation Zrotation
											JOINT mixamorig:RightHandMiddle4
											{
												OFFSET -2.946640 0.000000 -0.000156
												CHANNELS 6 Xposition Yposition Zposition Xrotation Yrotation Zrotation
												End Site
												{
													OFFSET -294.664337 0.000000 -0.113670
												}
											}
										}
									}
								}
								JOINT mixamorig:RightHandRing1
								{
									OFFSET -9.103600 -0.043076 -1.865134
									CHANNELS 6 Xposition Yposition Zposition Xrotation Yrotation Zrotation
									JOINT mixamorig:RightHandRing2
									{
										OFFSET -3.379288 0.000000 -0.001055
										CHANNELS 6 Xposition Yposition Zposition Xrotation Yrotation Zrotation
										JOINT mixamorig:RightHandRing3
										{
											OFFSET -2.889687 -0.000015 0.000379
											CHANNELS 6 Xposition Yposition Zposition Xrotation Yrotation Zrotation
											JOINT mixamorig:RightHandRing4
											{
												OFFSET -2.638809 -0.000015 0.000941
												CHANNELS 6 Xposition Yposition Zposition Xrotation Yrotation Zrotation
												End Site
												{
													OFFSET -263.880371 0.000000 0.516020
												}
											}
										}
									}
								}
								JOINT mixamorig:RightHandPinky1
								{
									OFFSET -8.076683 -0.486710 -3.806280
									CHANNELS 6 Xposition Yposition Zposition Xrotation Yrotation Zrotation
									JOINT mixamorig:RightHandPinky2
									{
										OFFSET -3.600014 -0.000015 -0.003747
										CHANNELS 6 Xposition Yposition Zposition Xrotation Yrotation Zrotation
										JOINT mixamorig:RightHandPinky3
										{
											OFFSET -2.099983 0.000000 -0.005739
											CHANNELS 6 Xposition Yposition Zposition Xrotation Yrotation Zrotation
											JOINT mixamorig:RightHandPinky4
											{
												OFFSET -2.115768 -0.000031 -0.003680
												CHANNELS 6 Xposition Yposition Zposition Xrotation Yrotation Zrotation
												End Site
												{
													OFFSET -211.577087 0.000000 -0.350686
												}
											}
										}
									}
								}
							}
						}
					}
				}
				JOINT mixamorig:LeftShoulder
				{
					OFFSET 4.570447 11.014725 -2.160855
					CHANNELS 6 Xposition Yposition Zposition Xrotation Yrotation Zrotation
					JOINT mixamorig:LeftArm
					{
						OFFSET 10.592371 -0.524597 -2.232119
						CHANNELS 6 Xposition Yposition Zposition Xrotation Yrotation Zrotation
						JOINT mixamorig:LeftForeArm
						{
							OFFSET 27.841532 -0.000031 0.000026
							CHANNELS 6 Xposition Yposition Zposition Xrotation Yrotation Zrotation
							JOINT mixamorig:LeftHand
							{
								OFFSET 28.328846 -0.000061 0.000022
								CHANNELS 6 Xposition Yposition Zposition Xrotation Yrotation Zrotation
								JOINT mixamorig:LeftHandThumb1
								{
									OFFSET 2.466141 -1.576172 2.681732
									CHANNELS 6 Xposition Yposition Zposition Xrotation Yrotation Zrotation
									JOINT mixamorig:LeftHandThumb2
									{
										OFFSET 3.217812 -1.872070 1.916482
										CHANNELS 6 Xposition Yposition Zposition Xrotation Yrotation Zrotation
										JOINT mixamorig:LeftHandThumb3
										{
											OFFSET 2.656029 -1.528778 1.514513
											CHANNELS 6 Xposition Yposition Zposition Xrotation Yrotation Zrotation
											JOINT mixamorig:LeftHandThumb4
											{
												OFFSET 2.020889 -1.154053 1.115139
												CHANNELS 6 Xposition Yposition Zposition Xrotation Yrotation Zrotation
												End Site
												{
													OFFSET 190.885437 -115.081749 130.048782
												}
											}
										}
									}
								}
								JOINT mixamorig:LeftHandIndex1
								{
									OFFSET 9.109314 -0.518021 2.259871
									CHANNELS 6 Xposition Yposition Zposition Xrotation Yrotation Zrotation
									JOINT mixamorig:LeftHandIndex2
									{
										OFFSET 3.699989 0.000000 -0.000322
										CHANNELS 6 Xposition Yposition Zposition Xrotation Yrotation Zrotation
										JOINT mixamorig:LeftHandIndex3
										{
											OFFSET 2.850006 0.000000 0.000352
											CHANNELS 6 Xposition Yposition Zposition Xrotation Yrotation Zrotation
											JOINT mixamorig:LeftHandIndex4
											{
												OFFSET 2.774864 -0.000031 -0.000027
												CHANNELS 6 Xposition Yposition Zposition Xrotation Yrotation Zrotation
												End Site
												{
													OFFSET 277.486267 0.000000 -0.009857
												}
											}
										}
									}
								}
								JOINT mixamorig:LeftHandMiddle1
								{
									OFFSET 9.533394 0.000061 0.000044
									CHANNELS 6 Xposition Yposition Zposition Xrotation Yrotation Zrotation
									JOINT mixamorig:LeftHandMiddle2
									{
										OFFSET 3.699989 -0.000015 -0.000231
										CHANNELS 6 Xposition Yposition Zposition Xrotation Yrotation Zrotation
										JOINT mixamorig:LeftHandMiddle3
										{
											OFFSET 2.949997 -0.000015 -0.000059
											CHANNELS 6 Xposition Yposition Zposition Xrotation Yrotation Zrotation
											JOINT mixamorig:LeftHandMiddle4
											{
												OFFSET 2.952896 0.000031 0.000063
												CHANNELS 6 Xposition Yposition Zposition Xrotation Yrotation Zrotation
												End Site
												{
													OFFSET 295.289337 0.000000 0.022810
												}
											}
										}
									}
								}
								JOINT mixamorig:LeftHandRing1
								{
									OFFSET 9.104523 -0.042999 -1.865074
									CHANNELS 6 Xposition Yposition Zposition Xrotation Yrotation Zrotation
									JOINT mixamorig:LeftHandRing2
									{
										OFFSET 3.150009 -0.000031 0.000043
										CHANNELS 6 Xposition Yposition Zposition Xrotation Yrotation Zrotation
										JOINT mixamorig:LeftHandRing3
										{
											OFFSET 2.949982 -0.000015 0.000040
											CHANNELS 6 Xposition Yposition Zposition Xrotation Yrotation Zrotation
											JOINT mixamorig:LeftHandRing4
											{
												OFFSET 2.644348 0.000000 0.000057
												CHANNELS 6 Xposition Yposition Zposition Xrotation Yrotation Zrotation
												End Site
												{
													OFFSET 264.434631 0.000000 0.012105
												}
											}
										}
									}
								}
								JOINT mixamorig:LeftHandPinky1
								{
									OFFSET 8.077789 -0.486847 -3.806259
									CHANNELS 6 Xposition Yposition Zposition Xrotation Yrotation Zrotation
									JOINT mixamorig:LeftHandPinky2
									{
										OFFSET 3.599953 0.000031 0.014727
										CHANNELS 6 Xposition Yposition Zposition Xrotation Yrotation Zrotation
										JOINT mixamorig:LeftHandPinky3
										{
											OFFSET 2.100021 0.000015 0.007705
											CHANNELS 6 Xposition Yposition Zposition Xrotation Yrotation Zrotation
											JOINT mixamorig:LeftHandPinky4
											{
												OFFSET 2.125504 0.000031 0.007517
												CHANNELS 6 Xposition Yposition Zposition Xrotation Yrotation Zrotation
												End Site
												{
													OFFSET 212.550781 0.000000 0.625752
												}
											}
										}
									}
								}
							}
						}
					}
				}
			}
		}
	}
	JOINT mixamorig:RightUpLeg
	{
		OFFSET -8.207787 -6.751648 -1.599560
		CHANNELS 6 Xposition Yposition Zposition Xrotation Yrotation Zrotation
		JOINT mixamorig:RightLeg
		{
			OFFSET -0.000002 -44.370117 0.345942
			CHANNELS 6 Xposition Yposition Zposition Xrotation Yrotation Zrotation
			JOINT mixamorig:RightFoot
			{
				OFFSET 0.000003 -44.423679 -3.043532
				CHANNELS 6 Xposition Yposition Zposition Xrotation Yrotation Zrotation
				JOINT mixamorig:RightToeBase
				{
					OFFSET -0.000002 -8.728671 10.710558
					CHANNELS 6 Xposition Yposition Zposition Xrotation Yrotation Zrotation
					JOINT mixamorig:RightToe_End
					{
						OFFSET -0.000001 -0.000679 9.278119
						CHANNELS 6 Xposition Yposition Zposition Xrotation Yrotation Zrotation
						End Site
						{
							OFFSET 0.000000 -0.067690 927.812134
						}
					}
				}
			}
		}
	}
	JOINT mixamorig:LeftUpLeg
	{
		OFFSET 8.207793 -6.751686 -1.599556
		CHANNELS 6 Xposition Yposition Zposition Xrotation Yrotation Zrotation
		JOINT mixamorig:LeftLeg
		{
			OFFSET -0.000004 -44.370014 0.346954
			CHANNELS 6 Xposition Yposition Zposition Xrotation Yrotation Zrotation
			JOINT mixamorig:LeftFoot
			{
				OFFSET -0.000001 -44.423672 -3.044401
				CHANNELS 6 Xposition Yposition Zposition Xrotation Yrotation Zrotation
				JOINT mixamorig:LeftToeBase
				{
					OFFSET -0.000002 -8.728669 10.710558
					CHANNELS 6 Xposition Yposition Zposition Xrotation Yrotation Zrotation
					JOINT mixamorig:LeftToe_End
					{
						OFFSET -0.000003 -0.000679 9.278133
						CHANNELS 6 Xposition Yposition Zposition Xrotation Yrotation Zrotation
						End Site
						{
							OFFSET 0.000000 -0.068021 927.813477
						}
					}
				}
			}
		}
	}
}
MOTION
Frames: 3
Frame Time: 0.033333
0.000006 104.270477 1.554256 0.000010 0.000003 -0.000113 -0.000005 10.181587 0.131522 0.000001 -0.000003 0.000084 -0.000000 9.893967 -1.470711 0.000001 0.000000 -0.000000 -0.000000 9.220802 -1.370642 0.000000 -0.000000 -0.000000 0.000001 16.740433 -2.049030 0.000000 -0.000000 -0.000000 0.000000 9.617859 1.685014 0.000000 0.000000 0.000000 0.000002 22.037384 7.501101 0.000000 -0.000000 0.000000 -4.569968 11.014880 -2.160881 0.000008 0.000001 -0.000038 -10.592876 -0.524689 -2.231999 72.353847 11.587892 -8.487349 -27.841534 0.000024 0.000544 -58.394224 118.821727 86.779425 -28.328829 0.000008 0.000017 -0.000321 -0.000045 0.000007 -2.464471 -1.573704 2.682329 -50.884469 -177.763569 -19.538799 -3.215300 -1.872669 1.924704 158.357676 27.829109 -18.280199 -2.654932 -1.527908 1.513107 143.326329 26.919504 -48.082486 -2.018838 -1.152015 1.108057 -0.000001 -0.000002 0.000004 -9.108382 -0.517557 2.260109 94.662959 16.459308 -17.885446 -3.700073 0.000324 0.001486 90.833579 13.703558 -13.878470 -2.850084 0.000370 -0.000291 88.473093 10.683681 -10.403359 -2.772168 -0.000014 -0.000015 0.000001 0.000004 -0.000001 -9.532599 0.000274 0.000215 89.097147 14.342904 -14.258781 -3.700069 0.000351 0.003939 88.780868 10.746445 -10.430197 -2.950060 0.000336 -0.001848 88.391186 10.337897 -10.046305 -2.946604 0.000014 -0.000150 -0.000002 0.000001 0.000001 -9.103702 -0.042743 -1.864897 87.181989 15.021124 -14.265855 -3.379314 0.000325 -0.000830 88.905294 8.069056 -7.933512 -2.889765 0.000346 0.000619 90.496113 5.742536 -5.837557 -2.638825 -0.000013 0.000945 0.000002 -0.000000 0.000000 -8.076737 -0.486386 -3.806071 80.496143 15.218076 -12.777405 -3.600032 0.000278 -0.003552 82.445369 7.058326 -5.879875 -2.100011 0.000336 -0.005541 82.405713 4.028745 -3.339823 -2.115789 -0.000054 -0.003670 0.000002 -0.000002 -0.000004 4.570446 11.014691 -2.160851 -0.000018 0.000010 -0.000021 10.592364 -0.524512 -2.232310 71.961726 2.796011 -2.030106 27.841829 0.000141 -0.000241 105.871969 -59.551074 74.287385 28.328842 -0.000043 0.000028 0.000022 -0.000089 -0.000001 2.465955 -1.576146 2.681905 -44.242810 168.484347 -0.193390 3.217857 -1.871832 1.916389 156.986844 -25.483779 30.941587 2.656107 -1.528684 1.514484 133.715966 -29.572093 53.432754 2.020879 -1.154066 1.115148 -0.000000 0.000001 0.000004 9.109372 -0.517877 2.259744 79.219082 -17.505382 14.511628 3.700045 0.000129 -0.000459 75.288035 -16.520143 12.791976 2.850050 0.000147 0.000215 72.439292 -13.734598 10.080812 2.774889 -0.000022 -0.000024 -0.000002 0.000000 -0.000001 9.533443 0.000179 -0.000092 76.105198 -16.175234 12.686951 3.700077 0.000137 -0.000376 78.340822 -15.142191 12.358517 2.950059 0.000136 -0.000193 76.795908 -17.297082 13.749710 2.952886 -0.000009 0.000069 -0.000001 0.000001 -0.000002 9.104576 -0.042874 -1.865234 75.763156 -14.390502 11.220023 3.150040 0.000167 -0.000087 79.110536 -13.697903 11.332554 2.950021 0.000160 -0.000053 79.190060 -14.725772 12.202759 2.644321 0.000019 0.000064 -0.000002 0.000002 0.000001 8.077840 -0.486759 -3.806413 65.464925 -16.170367 10.822594 3.600015 0.000144 0.014575 66.369768 -13.304748 9.064748 2.100037 0.000143 0.007559 69.003086 -12.236737 8.765401 2.125508 -0.000032 0.007512 -0.000002 0.000002 0.000001 -8.207786 -6.751667 -1.599560 -0.077001 -0.000003 0.000080 -0.000002 -44.370110 0.345938 0.153719 -0.000000 -0.000000 0.000000 -44.423679 -3.043532 -0.076700 0.000000 -0.000002 -0.000006 -8.728667 10.710559 -0.000009 -0.000000 -0.000000 -0.000001 -0.000679 9.278123 0.000000 -0.000000 -0.000000 8.207792 -6.751710 -1.599556 -0.074518 -0.000003 0.000081 -0.000002 -44.370014 0.346960 0.148822 0.000002 0.000000 -0.000001 -44.423664 -3.044403 -0.074314 0.000000 -0.000002 -0.000004 -8.728671 10.710558 0.000007 -0.000000 -0.000000 0.000000 -0.000680 9.278137 -0.000000 0.000000 -0.000001 
0.000006 104.270477 1.554256 0.000010 0.000003 -0.000113 -0.000005 10.181587 0.131522 0.000001 -0.000003 0.000084 -0.000000 9.893967 -1.470711 0.000001 0.000000 -0.000000 -0.000000 9.220802 -1.370642 0.000000 -0.000000 -0.000000 0.000001 16.740433 -2.049030 0.000000 -0.000000 -0.000000 0.000000 9.617859 1.685014 0.000000 0.000000 0.000000 0.000002 22.037384 7.501101 0.000000 -0.000000 0.000000 -4.569968 11.014880 -2.160881 0.000008 0.000001 -0.000038 -10.592871 -0.524681 -2.232023 72.021326 8.998710 -6.546860 -27.841534 0.000009 0.000537 -55.453592 118.866561 83.333943 -28.328821 0.000022 0.000028 -0.000320 -0.000045 0.000007 -2.464527 -1.573628 2.682285 -54.952198 -186.414140 -41.377160 -3.215266 -1.872668 1.924718 155.365890 25.578251 -31.869639 -2.654958 -1.527895 1.513104 139.162591 28.085034 -49.096254 -2.018834 -1.151998 1.108064 0.000001 -0.000001 0.000002 -9.108383 -0.517551 2.260095 92.849790 16.528359 -17.408141 -3.700067 0.000317 0.001466 91.923138 12.246930 -12.637703 -2.850066 0.000368 -0.000295 91.353773 8.673004 -8.878647 -2.772175 0.000001 -0.000024 -0.000000 0.000001 0.000002 -9.532586 0.000278 0.000210 89.350581 15.077117 -15.048592 -3.700070 0.000337 0.003955 89.576606 10.304210 -10.136719 -2.950060 0.000339 -0.001832 90.896601 9.578076 -9.721384 -2.946618 -0.000000 -0.000154 -0.000000 0.000000 0.000001 -9.103697 -0.042749 -1.864897 88.334468 15.438108 -14.958121 -3.379331 0.000328 -0.000826 89.855387 9.061604 -9.056034 -2.889754 0.000365 0.000630 93.812580 6.670698 -7.177363 -2.638818 -0.000003 0.000946 -0.000002 0.000001 -0.000003 -8.076752 -0.486381 -3.806060 83.464358 16.172754 -14.311344 -3.600027 0.000286 -0.003529 86.775538 8.423135 -7.627729 -2.100003 0.000324 -0.005500 88.907630 4.975797 -4.668760 -2.115769 -0.000039 -0.003679 0.000001 0.000001 -0.000003 4.570446 11.014691 -2.160851 -0.000018 0.000010 -0.000021 10.592352 -0.524536 -2.232260 72.284582 12.465639 -9.120909 27.841831 0.000134 -0.000214 106.202570 -60.308234 75.464049 28.328854 -0.000028 0.000028 0.000019 -0.000090 0.000000 2.466197 -1.576118 2.681870 -12.242077 164.407066 -69.146923 3.217868 -1.871848 1.916417 160.192006 -22.282790 42.761554 2.656105 -1.528701 1.514496 132.419582 -30.175752 61.219354 2.020895 -1.154085 1.115151 0.000004 0.000009 0.000004 9.109381 -0.517889 2.259743 78.324238 -19.815948 16.183264 3.700054 0.000127 -0.000460 76.138557 -13.779757 10.826418 2.850029 0.000161 0.000196 74.877916 -10.685669 8.190168 2.774873 -0.000039 -0.000035 -0.000003 0.000002 -0.000001 9.533465 0.000167 -0.000075 75.421244 -19.167060 14.868123 3.700072 0.000139 -0.000391 77.179778 -12.745463 10.183959 2.950047 0.000149 -0.000222 78.087920 -12.019384 9.762997 2.952868 -0.000041 0.000061 -0.000001 -0.000002 -0.000001 9.104591 -0.042886 -1.865203 74.632972 -18.784272 14.373686 3.150028 0.000169 -0.000088 78.752218 -13.406341 11.020651 2.950023 0.000164 -0.000105 80.467831 -11.057300 9.365097 2.644303 0.000046 0.000054 0.000001 0.000003 0.000003 8.077845 -0.486761 -3.806401 66.167492 -20.028433 13.535143 3.599999 0.000134 0.014582 65.765849 -17.158844 11.495552 2.100037 0.000144 0.007571 68.922701 -12.446907 8.898366 2.125497 -0.000001 0.007515 0.000000 -0.000000 -0.000000 -8.207786 -6.751667 -1.599560 -0.077001 -0.000003 0.000080 -0.000002 -44.370110 0.345938 0.153719 -0.000000 -0.000000 0.000000 -44.423679 -3.043532 -0.076700 0.000000 -0.000002 -0.000006 -8.728667 10.710559 -0.000009 -0.000000 -0.000000 -0.000001 -0.000679 9.278123 0.000000 -0.000000 -0.000000 8.207792 -6.751710 -1.599556 -0.074518 -0.000003 0.000081 -0.000002 -44.370014 0.346960 0.148822 0.000002 0.000000 -0.000001 -44.423664 -3.044403 -0.074314 0.000000 -0.000002 -0.000004 -8.728671 10.710558 0.000007 -0.000000 -0.000000 0.000000 -0.000680 9.278137 -0.000000 0.000000 -0.000001 
0.000006 104.270477 1.554256 0.000010 0.000003 -0.000113 -0.000005 10.181587 0.131522 0.000001 -0.000003 0.000084 -0.000000 9.893967 -1.470711 0.000001 0.000000 -0.000000 -0.000000 9.220802 -1.370642 0.000000 -0.000000 -0.000000 0.000001 16.740433 -2.049030 0.000000 -0.000000 -0.000000 0.000000 9.617859 1.685014 0.000000 0.000000 0.000000 0.000002 22.037384 7.501101 0.000000 -0.000000 0.000000 -4.569968 11.014880 -2.160881 0.000008 0.000001 -0.000038 -10.592877 -0.524695 -2.232007 70.984421 11.757748 -8.398801 -27.841513 -0.000015 0.000560 -51.401996 114.670502 73.791055 -28.328829 0.000005 0.000028 -0.000319 -0.000044 0.000007 -2.464433 -1.573735 2.682332 -49.310288 -171.217816 -13.700250 -3.215277 -1.872655 1.924720 157.432910 26.055145 -27.766116 -2.654955 -1.527888 1.513092 140.033522 27.883156 -47.726159 -2.018833 -1.152019 1.108060 0.000002 0.000003 0.000002 -9.108366 -0.517546 2.260106 95.356640 16.003960 -17.602345 -3.700062 0.000327 0.001508 96.345364 11.354182 -12.650864 -2.850076 0.000364 -0.000268 96.129059 7.097782 -7.897363 -2.772163 -0.000002 -0.000022 0.000006 0.000001 -0.000003 -9.532563 0.000270 0.000212 91.214034 14.338413 -14.785071 -3.700056 0.000334 0.003961 92.612263 9.144195 -9.473370 -2.950026 0.000357 -0.001838 92.516640 8.015325 -8.367001 -2.946635 0.000001 -0.000154 0.000001 -0.000000 0.000001 -9.103667 -0.042744 -1.864874 91.096699 13.924711 -14.147039 -3.379316 0.000319 -0.000808 93.361425 9.365402 -9.947190 -2.889745 0.000350 0.000626 95.714453 6.723196 -7.477824 -2.638822 -0.000000 0.000943 0.000003 0.000001 -0.000001 -8.076740 -0.486370 -3.806048 85.922427 15.010253 -13.851033 -3.600061 0.000277 -0.003503 91.337319 9.542794 -9.398740 -2.099995 0.000315 -0.005474 93.950905 5.637780 -5.804914 -2.115748 -0.000040 -0.003686 -0.000002 0.000001 -0.000002 4.570446 11.014691 -2.160851 -0.000018 0.000010 -0.000021 10.592354 -0.524542 -2.232254 71.717997 16.751512 -12.149025 27.841846 0.000141 -0.000214 107.216089 -61.279713 77.575294 28.328844 -0.000028 0.000030 0.000020 -0.000089 0.000001 2.466207 -1.576112 2.681861 -7.154482 165.212973 -78.135165 3.217865 -1.871872 1.916417 159.575322 -21.898621 45.102188 2.656096 -1.528700 1.514504 132.318577 -30.216340 61.251846 2.020887 -1.154096 1.115146 0.000000 -0.000002 0.000001 9.109378 -0.517881 2.259754 80.062945 -19.458268 16.381003 3.700036 0.000133 -0.000468 77.235602 -13.708041 10.982616 2.850042 0.000157 0.000196 75.212650 -10.692673 8.245081 2.774875 -0.000012 -0.000020 0.000003 -0.000001 0.000002 9.533454 0.000176 -0.000074 76.720926 -19.057625 15.128143 3.700054 0.000156 -0.000372 78.033252 -12.921047 10.482511 2.950052 0.000148 -0.000206 78.338117 -11.843994 9.663026 2.952886 -0.000029 0.000067 0.000002 -0.000005 -0.000002 9.104591 -0.042878 -1.865212 76.333484 -18.753111 14.791560 3.150060 0.000168 -0.000085 79.706989 -13.904399 11.625542 2.950012 0.000157 -0.000087 80.729646 -11.221792 9.548570 2.644328 0.000017 0.000057 0.000002 -0.000002 -0.000001 8.077834 -0.486759 -3.806381 68.278143 -20.247720 14.231819 3.600003 0.000147 0.014588 67.666739 -17.740160 12.311174 2.100048 0.000130 0.007551 69.729654 -12.721824 9.226383 2.125503 -0.000031 0.007518 -0.000003 -0.000001 0.000000 -8.207786 -6.751667 -1.599560 -0.077001 -0.000003 0.000080 -0.000002 -44.370110 0.345938 0.153719 -0.000000 -0.000000 0.000000 -44.423679 -3.043532 -0.076700 0.000000 -0.000002 -0.000006 -8.728667 10.710559 -0.000009 -0.000000 -0.000000 -0.000001 -0.000679 9.278123 0.000000 -0.000000 -0.000000 8.207792 -6.751710 -1.599556 -0.074518 -0.000003 0.000081 -0.000002 -44.370014 0.346960 0.148822 0.000002 0.000000 -0.000001 -44.423664 -3.044403 -0.074314 0.000000 -0.000002 -0.000004 -8.728671 10.710558 0.000007 -0.000000 -0.000000 0.000000 -0.000680 9.278137 -0.000000 0.000000 -0.000001 
